0
SECTION
2
HEADER
9
$INSUNITS
70
4
9
$ACADVER
1
AC1014
9
$HANDSEED
5
FFFF
0
ENDSEC
0
SECTION
2
TABLES
0
TABLE
2
VPORT
5
8
100
AcDbSymbolTable
0
ENDTAB
0
TABLE
2
LTYPE
5
5
100
AcDbSymbolTable
0
LTYPE
5
14
100
AcDbSymbolTableRecord
100
AcDbLinetypeTableRecord
2
BYBLOCK
70
0
0
LTYPE
5
15
100
AcDbSymbolTableRecord
100
AcDbLinetypeTableRecord
2
BYLAYER
70
0
0
ENDTAB
0
TABLE
2
LAYER
5
2
100
AcDbSymbolTable
70
2
0
LAYER
5
50
100
AcDbSymbolTableRecord
100
AcDbLayerTableRecord
2
0
70
0
6
CONTINUOUS
0
ENDTAB
0
TABLE
2
STYLE
5
3
100
AcDbSymbolTable
70
1
0
STYLE
5
11
100
AcDbSymbolTableRecord
100
AcDbTextStyleTableRecord
2
STANDARD
70
0
0
ENDTAB
0
TABLE
2
VIEW
5
6
100
AcDbSymbolTable
70
0
0
ENDTAB
0
TABLE
2
UCS
5
7
100
AcDbSymbolTable
70
0
0
ENDTAB
0
TABLE
2
APPID
5
9
100
AcDbSymbolTable
70
2
0
APPID
5
12
100
AcDbSymbolTableRecord
100
AcDbRegAppTableRecord
2
ACAD
70
0
0
ENDTAB
0
TABLE
2
DIMSTYLE
5
A
100
AcDbSymbolTable
70
1
0
ENDTAB
0
TABLE
2
BLOCK_RECORD
5
1
100
AcDbSymbolTable
70
1
0
BLOCK_RECORD
5
1F
100
AcDbSymbolTableRecord
100
AcDbBlockTableRecord
2
*MODEL_SPACE
0
BLOCK_RECORD
5
1B
100
AcDbSymbolTableRecord
100
AcDbBlockTableRecord
2
*PAPER_SPACE
0
ENDTAB
0
ENDSEC
0
SECTION
2
BLOCKS
0
BLOCK
5
20
100
AcDbEntity
100
AcDbBlockBegin
2
*MODEL_SPACE
0
ENDBLK
5
21
100
AcDbEntity
100
AcDbBlockEnd
0
BLOCK
5
1C
100
AcDbEntity
100
AcDbBlockBegin
2
*PAPER_SPACE
0
ENDBLK
5
1D
100
AcDbEntity
100
AcDbBlockEnd
0
ENDSEC
0
SECTION
2
ENTITIES
0
CIRCLE
5
100
100
AcDbEntity
8
0
100
AcDbCircle
10
-273.94915464942807
20
-5.0604574145798962
30
0
40
1.1000000000000001
210
0
220
-0
230
1
0
CIRCLE
5
101
100
AcDbEntity
8
0
100
AcDbCircle
10
-5.050845439978886
20
-211.93954267482709
30
0
40
1.1000000000000001
210
0
220
-0
230
1
0
CIRCLE
5
102
100
AcDbEntity
8
0
100
AcDbCircle
10
-273.93954267482707
20
-211.9491546494281
30
0
40
1.1000000000000001
210
0
220
-0
230
1
0
CIRCLE
5
103
100
AcDbEntity
8
0
100
AcDbCircle
10
-5.0604574145798953
20
-5.0508454399788869
30
0
40
1.1000000000000001
210
0
220
-0
230
1
0
LWPOLYLINE
5
104
100
AcDbEntity
8
0
100
AcDbPolyline
90
6
70
1
43
0.0
10
-26.320398193427064
20
-158.38218487766409
10
-26.300715711445555
20
-154.9181391793652
10
-23.290922895857776
20
-153.20316185962125
10
-20.30081256225148
20
-154.95223023817618
10
-20.320495044232967
20
-158.41627593647507
10
-23.330287859820764
20
-160.13125325621903
0
LWPOLYLINE
5
105
100
AcDbEntity
8
0
100
AcDbPolyline
90
6
70
1
43
0.0
10
-26.415095579013233
20
-175.04858251431432
10
-26.395413097031728
20
-171.58453681601543
10
-23.385620281443948
20
-169.86955949627148
10
-20.395509947837649
20
-171.61862787482644
10
-20.415192429819136
20
-175.08267357312533
10
-23.424985245406937
20
-176.79765089286929
0
LWPOLYLINE
5
106
100
AcDbEntity
8
0
100
AcDbPolyline
90
6
70
1
43
0.0
10
-26.367746886220147
20
-166.7153836959892
10
-26.348064404238649
20
-163.25133799769031
10
-23.338271588650862
20
-161.53636067794636
10
-20.348161255044559
20
-163.2854290565013
10
-20.367843737026057
20
-166.74947475480022
10
-23.377636552613851
20
-168.46445207454417
0
LWPOLYLINE
5
107
100
AcDbEntity
8
0
100
AcDbPolyline
90
6
70
1
43
0.0
10
-18.225700807840891
20
-141.71578724101383
10
-18.20601832585939
20
-138.25174154271494
10
-15.196225510271608
20
-136.53676422297099
10
-12.206115176665307
20
-138.28583260152595
10
-12.225797658646799
20
-141.74987829982484
10
-15.235590474234595
20
-143.46485561956879
0
LWPOLYLINE
5
108
100
AcDbEntity
8
0
100
AcDbPolyline
90
6
70
1
43
0.0
10
-18.273049500633977
20
-150.04898605933897
10
-18.253367018652476
20
-146.58494036104005
10
-15.243574203064693
20
-144.8699630412961
10
-12.253463869458391
20
-146.61903141985107
10
-12.273146351439886
20
-150.08307711814996
10
-15.282939167027681
20
-151.79805443789391
0
LWPOLYLINE
5
109
100
AcDbEntity
8
0
100
AcDbPolyline
90
6
70
1
43
0.0
10
-18.32039819342706
20
-158.38218487766409
10
-18.300715711445559
20
-154.9181391793652
10
-15.290922895857777
20
-153.20316185962125
10
-12.300812562251476
20
-154.95223023817618
10
-12.320495044232969
20
-158.41627593647507
10
-15.330287859820764
20
-160.13125325621903
0
LWPOLYLINE
5
110
100
AcDbEntity
8
0
100
AcDbPolyline
90
6
70
1
43
0.0
10
-18.367746886220147
20
-166.7153836959892
10
-18.348064404238645
20
-163.25133799769031
10
-15.338271588650862
20
-161.53636067794636
10
-12.348161255044561
20
-163.2854290565013
10
-12.367843737026053
20
-166.74947475480022
10
-15.377636552613849
20
-168.46445207454417
0
LWPOLYLINE
5
111
100
AcDbEntity
8
0
100
AcDbPolyline
90
6
70
1
43
0.0
10
-18.415095579013233
20
-175.04858251431432
10
-18.395413097031728
20
-171.58453681601543
10
-15.385620281443948
20
-169.86955949627148
10
-12.395509947837645
20
-171.61862787482644
10
-12.41519242981914
20
-175.08267357312533
10
-15.424985245406935
20
-176.79765089286929
0
LWPOLYLINE
5
112
100
AcDbEntity
8
0
100
AcDbPolyline
90
6
70
1
43
0.0
10
-18.462444271806316
20
-183.38178133263943
10
-18.442761789824814
20
-179.91773563434054
10
-15.432968974237031
20
-178.20275831459662
10
-12.44285864063073
20
-179.95182669315156
10
-12.462541122612222
20
-183.41587239145045
10
-15.472333938200018
20
-185.1308497111944
0
LWPOLYLINE
5
113
100
AcDbEntity
8
0
100
AcDbPolyline
90
6
70
1
43
0.0
10
-18.509792964599402
20
-191.71498015096458
10
-18.490110482617897
20
-188.25093445266566
10
-15.480317667030118
20
-186.53595713292174
10
-12.490207333423815
20
-188.28502551147668
10
-12.509889815405309
20
-191.74907120977559
10
-15.519682630993103
20
-193.46404852951952
0
CIRCLE
5
114
100
AcDbEntity
8
0
100
AcDbCircle
10
-162.46835427627747
20
-104.14362457707307
30
0
40
1
210
0
220
-0
230
1
0
CIRCLE
5
115
100
AcDbEntity
8
0
100
AcDbCircle
10
-271.99276644872572
20
-96.219838085945796
30
0
40
1
210
0
220
-0
230
1
0
CIRCLE
5
116
100
AcDbEntity
8
0
100
AcDbCircle
10
-271.99276644872572
20
-54.219838085945796
30
0
40
1
210
0
220
-0
230
1
0
CIRCLE
5
117
100
AcDbEntity
8
0
100
AcDbCircle
10
-271.99276644872572
20
-164.21983808594578
30
0
40
1
210
0
220
-0
230
1
0
CIRCLE
5
118
100
AcDbEntity
8
0
100
AcDbCircle
10
-6.9999999999999094
20
-96.081147597954967
30
0
40
1
210
0
220
-0
230
1
0
CIRCLE
5
119
100
AcDbEntity
8
0
100
AcDbCircle
10
-6.9999999999999094
20
-165.08114759795495
30
0
40
1
210
0
220
-0
230
1
0
CIRCLE
5
120
100
AcDbEntity
8
0
100
AcDbCircle
10
-6.9999999999999094
20
-54.08114759795496
30
0
40
1
210
0
220
-0
230
1
0
CIRCLE
5
121
100
AcDbEntity
8
0
100
AcDbCircle
10
-122.99678221498257
20
-210.32786838523634
30
0
40
1
210
0
220
-0
230
1
0
CIRCLE
5
122
100
AcDbEntity
8
0
100
AcDbCircle
10
-213.01346916610305
20
-210.27048962600546
30
0
40
1.0000000000000002
210
0
220
-0
230
1
0
LWPOLYLINE
5
123
100
AcDbEntity
8
0
100
AcDbPolyline
90
10
70
1
43
0.0
10
-258.08380999777961
20
-94.808931286464627
10
-258.08380999777961
20
-3.100000000000005
10
-275.90000000000003
20
-3.1000000000000014
10
-275.90000000000003
20
-213.90000000000001
10
-3.0999999999999872
20
-213.90000000000001
10
-3.1000000000000014
20
-3.0999999999999872
10
-17.968324367563504
20
-3.0999999999999983
10
-17.968324367563511
20
-94.808931286464627
42
-0.41421356237309537
10
-19.968324367563504
20
-96.808931286464613
10
-256.08380999777967
20
-96.808931286464613
42
-0.41421356237309509
0
LWPOLYLINE
5
124
100
AcDbEntity
8
0
100
AcDbPolyline
90
6
70
1
43
0.0
10
-94.595635124235727
20
-167.12804986514942
10
-92.294825116258551
20
-164.53840253255908
10
-88.901719735404171
20
-165.23613878245357
10
-87.809424362526883
20
-168.52352236493843
10
-90.110234370504031
20
-171.11316969752878
10
-93.503339751358411
20
-170.41543344763426
0
LWPOLYLINE
5
125
100
AcDbEntity
8
0
100
AcDbPolyline
90
6
70
1
43
0.0
10
-86.311575793649695
20
-147.50995116072738
10
-83.142347666848821
20
-148.90851938583978
10
-82.76892921532145
20
-152.35243556659373
10
-85.564738890594967
20
-154.39778352223527
10
-88.733967017395869
20
-152.99921529712282
10
-89.107385468923212
20
-149.55529911636887
0
LWPOLYLINE
5
126
100
AcDbEntity
8
0
100
AcDbPolyline
90
6
70
1
43
0.0
10
-65.099936626000925
20
-149.39722421743733
10
-65.462238959163415
20
-152.84232755687214
10
-68.626937136357853
20
-154.25111620222046
10
-71.429332980389759
20
-152.21480150813395
10
-71.067030647227256
20
-148.76969816869914
10
-67.902332470032832
20
-147.36090952335081
0
LWPOLYLINE
5
127
100
AcDbEntity
8
0
100
AcDbPolyline
90
6
70
1
43
0.0
10
-60.409566954723815
20
-170.16970283978466
10
-63.800402938497669
20
-170.87838565398613
10
-66.109558250708488
20
-168.29617695907231
10
-65.027877579145454
20
-165.00528544995703
10
-61.637041595371628
20
-164.29660263575559
10
-59.327886283160808
20
-166.87881133066941
0
LWPOLYLINE
5
128
100
AcDbEntity
8
0
100
AcDbPolyline
90
6
70
1
43
0.0
10
-78.752268563539758
20
-180.98823940713311
10
-80.464023797580012
20
-177.97661293315997
10
-78.711756381429666
20
-174.98837617843355
10
-75.247733731239066
20
-175.01176589768028
10
-73.535978497198812
20
-178.02339237165342
10
-75.288245913349158
20
-181.01162912637983
0
LWPOLYLINE
5
129
100
AcDbEntity
8
0
100
AcDbPolyline
90
6
70
1
43
0.0
10
-81.583136341241811
20
-171.02048901813092
10
-86.237513881311273
20
-163.04113421665539
10
-81.654378687458887
20
-155.02064762741378
10
-72.416865953537013
20
-154.97951583964763
10
-67.762488413467551
20
-162.95887064112316
10
-72.345623607319936
20
-170.97935723036477
0
LWPOLYLINE
5
130
100
AcDbEntity
8
0
100
AcDbPolyline
90
6
70
1
43
0.0
10
-90.314245062831517
20
-155.35431100650672
10
-87.975291955270976
20
-157.90956018430381
10
-89.018726102462267
20
-161.21277758261039
10
-92.401113357214115
20
-161.96074580311983
10
-94.740066464774657
20
-159.40549662532274
10
-93.696632317583408
20
-156.1022792270162
0
LWPOLYLINE
5
131
100
AcDbEntity
8
0
100
AcDbPolyline
90
6
70
1
43
0.0
10
-73.856674629741121
20
-147.97185594405522
10
-75.561309874431373
20
-150.98751817357626
10
-79.025267596774924
20
-151.0190918622487
10
-80.784590074428195
20
-148.0350033214001
10
-79.079954829737972
20
-145.01934109187911
10
-75.615997107394406
20
-144.98776740320667
0
LWPOLYLINE
5
132
100
AcDbEntity
8
0
100
AcDbPolyline
90
6
70
1
43
0.0
10
-61.737572424269125
20
-161.33148277426915
10
-65.133031901019436
20
-160.64529406717281
10
-66.236504787259094
20
-157.36164554923823
10
-63.944518196748525
20
-154.76418573840007
10
-60.54905871999825
20
-155.45037444549641
10
-59.44558583375855
20
-158.73402296343096
0
LWPOLYLINE
5
133
100
AcDbEntity
8
0
100
AcDbPolyline
90
6
70
1
43
0.0
10
-70.683912106484826
20
-176.99402642463642
10
-71.083729749699089
20
-173.55307512417102
10
-68.30368733191807
20
-171.48634723803355
10
-65.123827270922817
20
-172.86057065236147
10
-64.724009627708554
20
-176.30152195282687
10
-67.504052045489559
20
-178.36824983896435
0
LWPOLYLINE
5
134
100
AcDbEntity
8
0
100
AcDbPolyline
90
6
70
1
43
0.0
10
-88.347816277443002
20
-173.34180015173752
10
-85.200157547442529
20
-171.89534084727998
10
-82.373657679241731
20
-173.89806361767552
10
-82.694816541041391
20
-177.34724569252853
10
-85.842475271041849
20
-178.79370499698607
10
-88.668975139242661
20
-176.79098222659053
0
LWPOLYLINE
5
135
100
AcDbEntity
8
0
100
AcDbPolyline
90
6
70
1
43
0.0
10
-96.422891887448671
20
-179.64724163582034
10
-98.466057824297351
20
-176.84983695388721
10
-97.065017273502065
20
-173.68170100746266
10
-93.620810785858083
20
-173.31096974297125
10
-91.577644849009388
20
-176.10837442490435
10
-92.978685399804718
20
-179.27651037132892
0
LWPOLYLINE
5
136
100
AcDbEntity
8
0
100
AcDbPolyline
90
6
70
1
43
0.0
10
-102.49972803157293
20
-165.03548437307535
10
-102.50624683323929
20
-161.57138889153549
10
-99.509511545924013
20
-159.83369570292027
10
-96.506257456942436
20
-161.56009799584493
10
-96.499738655276118
20
-165.02419347738481
10
-99.496473942591365
20
-166.76188666600007
0
LWPOLYLINE
5
137
100
AcDbEntity
8
0
100
AcDbPolyline
90
6
70
1
43
0.0
10
-98.817801324312228
20
-149.64474678352903
10
-96.785178240957279
20
-146.83967220323481
10
-93.339600853235055
20
-147.1974381395917
10
-91.926646548867708
20
-150.36027865624283
10
-93.959269632222657
20
-153.16535323653707
10
-97.404847019944881
20
-152.80758730018019
0
LWPOLYLINE
5
138
100
AcDbEntity
8
0
100
AcDbPolyline
90
6
70
1
43
0.0
10
-86.786187625009319
20
-139.36507462831599
10
-83.492308895446769
20
-138.29252490222615
10
-80.916514221049624
20
-140.60883269596764
10
-81.634598276215087
20
-143.99769021579897
10
-84.928477005777637
20
-145.07023994188876
10
-87.504271680174796
20
-142.7539321481473
0
LWPOLYLINE
5
139
100
AcDbEntity
8
0
100
AcDbPolyline
90
6
70
1
43
0.0
10
-71.009393693452267
20
-138.13050544471417
10
-67.714828951585062
20
-139.20094608372489
10
-66.994575367277989
20
-142.58934316409974
10
-69.568886524838121
20
-144.90729960546392
10
-72.863451266705312
20
-143.83685896645318
10
-73.583704851012399
20
-140.44846188607832
0
LWPOLYLINE
5
140
100
AcDbEntity
8
0
100
AcDbPolyline
90
6
70
1
43
0.0
10
-57.525209315881192
20
-146.41350970039235
10
-55.490790732988771
20
-149.21728234266956
10
-56.901719776190447
20
-152.38102683852415
10
-60.347067402284509
20
-152.74099869210153
10
-62.381485985176965
20
-149.93722604982435
10
-60.970556941975289
20
-146.77348155396973
0
LWPOLYLINE
5
141
100
AcDbEntity
8
0
100
AcDbPolyline
90
6
70
1
43
0.0
10
-51.494041040284841
20
-161.04417602354235
10
-51.498341994077066
20
-164.5082749686934
10
-54.500490158696842
20
-166.23659970602438
10
-57.498337369524428
20
-164.50082549820428
10
-57.494036415732204
20
-161.03672655305326
10
-54.491888251112393
20
-159.30840181572228
0
LWPOLYLINE
5
142
100
AcDbEntity
8
0
100
AcDbPolyline
90
6
70
1
43
0.0
10
-55.224021074732157
20
-176.42333844451119
10
-57.265395587262518
20
-179.22205066615734
10
-60.709838725355247
20
-178.85352459049108
10
-62.112907350917638
20
-175.68628629317863
10
-60.071532838387292
20
-172.88757407153247
10
-56.627089700294562
20
-173.25610014719874
0
LWPOLYLINE
5
143
100
AcDbEntity
8
0
100
AcDbPolyline
90
6
70
1
43
0.0
10
-67.287683518827365
20
-186.66538102706471
10
-70.584896173374545
20
-187.72763745123649
10
-73.15344354931409
20
-185.40329574280497
10
-72.424778270706469
20
-182.01669761020173
10
-69.127565616159302
20
-180.95444118602998
10
-66.559018240219757
20
-183.27878289446147
0
LWPOLYLINE
5
144
100
AcDbEntity
8
0
100
AcDbPolyline
90
6
70
1
43
0.0
10
-83.068256536315914
20
-187.85066709701891
10
-86.359461803613868
20
-186.76994146647695
10
-87.069128586692557
20
-183.37931128065676
10
-84.487590102473277
20
-181.06940672537857
10
-81.196384835175323
20
-182.15013235592053
10
-80.486718052096634
20
-185.54076254174072
0
LWPOLYLINE
5
145
100
AcDbEntity
8
0
100
AcDbPolyline
90
6
70
1
43
0.0
10
-93.244277911402946
20
-191.76794694498344
10
-93.443042753596046
20
-188.30955244210963
10
-90.547367678895441
20
-186.40821978795424
10
-87.452927762001707
20
-187.96528163667273
10
-87.254162919808564
20
-191.42367613954659
10
-90.149837994509198
20
-193.32500879370195
0
LWPOLYLINE
5
146
100
AcDbEntity
8
0
100
AcDbPolyline
90
6
70
1
43
0.0
10
-101.34568051474879
20
-185.33291660077182
10
-100.46501390496087
20
-181.98262910230181
10
-97.123246516410433
20
-181.07016500940787
10
-94.662145737647904
20
-183.50798841498397
10
-95.54281234743587
20
-186.85827591345398
10
-98.884579735986307
20
-187.77074000634792
0
LWPOLYLINE
5
147
100
AcDbEntity
8
0
100
AcDbPolyline
90
6
70
1
43
0.0
10
-107.05946301629822
20
-176.70766128875874
10
-105.18573335151594
20
-173.79404890147816
10
-101.72560617495878
20
-173.95994019736389
10
-100.13920866318398
20
-177.03944388053014
10
-102.01293832796625
20
-179.95305626781072
10
-105.4730655045234
20
-179.78716497192499
0
LWPOLYLINE
5
148
100
AcDbEntity
8
0
100
AcDbPolyline
90
6
70
1
43
0.0
10
-109.82526553649566
20
-166.73807373000329
10
-107.14223251163077
20
-164.54687912717026
10
-103.90308580850963
20
-165.77485658447938
10
-103.34697213025336
20
-169.19402864462143
10
-106.0300051551182
20
-171.38522324745446
10
-109.26915185823941
20
-170.15724579014534
0
LWPOLYLINE
5
149
100
AcDbEntity
8
0
100
AcDbPolyline
90
6
70
1
43
0.0
10
-109.37184135450923
20
-156.40188748053905
10
-106.14263435228668
20
-155.14800465634983
10
-103.44213647205855
20
-157.31763854225855
10
-103.970845594053
20
-160.74115525235646
10
-107.20005259627558
20
-161.99503807654571
10
-109.9005504765037
20
-159.82540419063699
0
LWPOLYLINE
5
150
100
AcDbEntity
8
0
100
AcDbPolyline
90
6
70
1
43
0.0
10
-105.74365851229462
20
-146.71278902217443
10
-102.28497107964843
20
-146.51918829062836
10
-100.38796421161516
20
-149.41769910527688
10
-101.94964477622811
20
-152.50981065147153
10
-105.40833220887428
20
-152.70341138301762
10
-107.30533907690756
20
-149.80490056836908
0
LWPOLYLINE
5
151
100
AcDbEntity
8
0
100
AcDbPolyline
90
6
70
1
43
0.0
10
-99.296538761890616
20
-138.62100389178619
10
-95.947569962252459
20
-139.50667198935449
10
-95.040096634248954
20
-142.84979809510673
10
-97.481592105883621
20
-145.30725610329071
10
-100.83056090552176
20
-144.42158800572241
10
-101.73803423352524
20
-141.07846189997016
0
LWPOLYLINE
5
152
100
AcDbEntity
8
0
100
AcDbPolyline
90
6
70
1
43
0.0
10
-90.662761551427479
20
-132.9201065279924
10
-87.751950164658467
20
-134.79818455370275
10
-87.923007751828465
20
-138.25806017312487
10
-91.004876725767417
20
-139.83985776683667
10
-93.915688112536415
20
-137.96177974112629
10
-93.744630525366432
20
-134.50190412170423
0
LWPOLYLINE
5
153
100
AcDbEntity
8
0
100
AcDbPolyline
90
6
70
1
43
0.0
10
-80.689055358311066
20
-130.16919314407539
10
-78.501869359024639
20
-132.85549495223574
10
-79.734681967480341
20
-136.09280449449955
10
-83.154680575222457
20
-136.64381222860311
10
-85.341866574508884
20
-133.95751042044276
10
-84.109053966053182
20
-130.7202008781789
0
LWPOLYLINE
5
154
100
AcDbEntity
8
0
100
AcDbPolyline
90
6
70
1
43
0.0
10
-70.353557659699746
20
-130.63805025922119
10
-69.104497911867071
20
-133.86912589224866
10
-71.278161617701443
20
-136.5663811812301
10
-74.700885071368489
20
-136.03256083718404
10
-75.949944819201164
20
-132.80148520415648
10
-73.776281113366792
20
-130.10422991517504
0
LWPOLYLINE
5
155
100
AcDbEntity
8
0
100
AcDbPolyline
90
6
70
1
43
0.0
10
-60.669887410107449
20
-134.28069629878974
10
-60.481451220838736
20
-137.73966895010889
10
-63.382791313242365
20
-139.63234580266749
10
-66.472567594914722
20
-138.06605000390698
10
-66.661003784183436
20
-134.60707735258782
10
-63.759663691779792
20
-132.71440050002923
0
LWPOLYLINE
5
156
100
AcDbEntity
8
0
100
AcDbPolyline
90
6
70
1
43
0.0
10
-52.587737793208227
20
-140.73989108161513
10
-53.478405403971152
20
-144.08753371593826
10
-56.82288277346828
20
-144.99001425585112
10
-59.276692532202517
20
-142.54485216144087
10
-58.386024921439557
20
-139.19720952711774
10
-55.041547551942429
20
-138.29472898720491
0
LWPOLYLINE
5
157
100
AcDbEntity
8
0
100
AcDbPolyline
90
6
70
1
43
0.0
10
-46.899738277248026
20
-149.3821709416323
10
-48.782160476735399
20
-152.29017483827292
10
-52.241776825274009
20
-152.11395134118936
10
-53.818970974325211
20
-149.02972394746519
10
-51.936548774837838
20
-146.12172005082456
10
-48.476932426299228
20
-146.29794354790812
0
LWPOLYLINE
5
158
100
AcDbEntity
8
0
100
AcDbPolyline
90
6
70
1
43
0.0
10
-44.163720162737548
20
-159.35997353285921
10
-46.853284765117778
20
-161.54314605229581
10
-50.088749928984093
20
-160.30550104123341
10
-50.634650490470143
20
-156.88468351073448
10
-47.945085888089913
20
-154.70151099129785
10
-44.709620724223633
20
-155.93915600236022
0
LWPOLYLINE
5
159
100
AcDbEntity
8
0
100
AcDbPolyline
90
6
70
1
43
0.0
10
-44.648009165731679
20
-169.69475963775764
10
-47.88094622592233
20
-170.93899352447102
10
-50.574952910160889
20
-168.76130484486646
10
-50.036022534208762
20
-165.33938227854847
10
-46.803085474018147
20
-164.09514839183512
10
-44.109078789779588
20
-166.27283707143971
0
LWPOLYLINE
5
160
100
AcDbEntity
8
0
100
AcDbPolyline
90
6
70
1
43
0.0
10
-48.305110281421442
20
-179.37298008895851
10
-51.764360439678221
20
-179.55625131583378
10
-53.652703057063334
20
-176.65208841417569
10
-52.081795516191661
20
-173.56465428564235
10
-48.622545357934882
20
-173.38138305876711
10
-46.734202740549762
20
-176.2855459604252
0
LWPOLYLINE
5
161
100
AcDbEntity
8
0
100
AcDbPolyline
90
6
70
1
43
0.0
10
-54.776365695976033
20
-187.44547617331943
10
-58.122674701457662
20
-186.54981103509388
10
-59.020160441211047
20
-183.20398985832139
10
-56.571337175482839
20
-180.75383381977443
10
-53.22502817000121
20
-181.64949895799995
10
-52.327542430247803
20
-184.99532013477247
0
LWPOLYLINE
5
162
100
AcDbEntity
8
0
100
AcDbPolyline
90
6
70
1
43
0.0
10
-63.427128937694775
20
-193.12056516012393
10
-66.332318860849512
20
-191.23380298369568
10
-66.150929846740425
20
-187.77445361921104
10
-63.064350909476595
20
-186.2018664311546
10
-60.159160986321851
20
-188.08862860758282
10
-60.340550000430966
20
-191.54797797206751
0
LWPOLYLINE
5
163
100
AcDbEntity
8
0
100
AcDbPolyline
90
6
70
1
43
0.0
10
-73.409005681648807
20
-195.84168190531028
10
-75.588159853880384
20
-193.14886050506007
10
-74.345685199525079
20
-189.91524693301955
10
-70.924056372938196
20
-189.37445476122929
10
-68.744902200706605
20
-192.06727616147947
10
-69.98737685506191
20
-195.30088973352002
0
LWPOLYLINE
5
164
100
AcDbEntity
8
0
100
AcDbPolyline
90
6
70
1
43
0.0
10
-83.743057151560819
20
-195.341962094184
10
-84.982462403151374
20
-192.10717081462209
10
-82.80075360490568
20
-189.41641874137989
10
-79.379639555069417
20
-189.96045794769958
10
-78.140234303478863
20
-193.19524922726148
10
-80.321943101724571
20
-195.88600130050369
0
LWPOLYLINE
5
165
100
AcDbEntity
8
0
100
AcDbPolyline
90
6
70
1
43
0.0
10
-89.879090298370983
20
-200.23851756771626
10
-90.694768148836999
20
-196.87181745569865
10
-88.186959250138841
20
-194.48206965988203
10
-84.863472500974694
20
-195.45902197608299
10
-84.047794650508678
20
-198.8257220881006
10
-86.555603549206836
20
-201.21546988391725
0
LWPOLYLINE
5
166
100
AcDbEntity
8
0
100
AcDbPolyline
90
6
70
1
43
0.0
10
-100.79725123079982
20
-194.40491980772035
10
-100.52811344149728
20
-190.9512891311179
10
-97.402612645619058
20
-189.4575539554711
10
-94.546249639043367
20
-191.41744945642668
10
-94.8153874283459
20
-194.87108013302912
10
-97.940888224224125
20
-196.36481530867596
0
LWPOLYLINE
5
167
100
AcDbEntity
8
0
100
AcDbPolyline
90
6
70
1
43
0.0
10
-109.36665948341189
20
-185.47170408369877
10
-108.03926954809111
20
-182.27201097972628
10
-104.60455906807664
20
-181.82171783245565
10
-102.49723852338295
20
-184.57111778915754
10
-103.82462845870378
20
-187.77081089313
10
-107.25933893871826
20
-188.2211040404006
0
LWPOLYLINE
5
168
100
AcDbEntity
8
0
100
AcDbPolyline
90
6
70
1
43
0.0
10
-114.74152739052255
20
-174.32056530988035
10
-112.48689669313826
20
-171.69061466045505
10
-109.08197727134443
20
-172.32820679582943
10
-107.93168854693488
20
-175.5957495806291
10
-110.18631924431915
20
-178.2257002300544
10
-113.59123866611299
20
-177.58810809468002
0
LWPOLYLINE
5
169
100
AcDbEntity
8
0
100
AcDbPolyline
90
6
70
1
43
0.0
10
-116.39136359887712
20
-162.05210405928142
10
-113.43202078765202
20
-160.25146802563924
10
-110.39295283393574
20
-161.91401606184598
10
-110.31322769144452
20
-165.37720013169485
10
-113.27257050266962
20
-167.17783616533697
10
-116.31163845638585
20
-165.51528812913028
0
LWPOLYLINE
5
170
100
AcDbEntity
8
0
100
AcDbPolyline
90
6
70
1
43
0.0
10
-114.15333176385383
20
-149.87719894764851
10
-110.78135950943265
20
-149.08359758965219
10
-108.4080944457194
20
-151.6070105438391
10
-109.40680163642737
20
-154.9240248560223
10
-112.77877389084856
20
-155.71762621401862
10
-115.15203895456183
20
-153.19421325983171
0
LWPOLYLINE
5
171
100
AcDbEntity
8
0
100
AcDbPolyline
90
6
70
1
43
0.0
10
-108.24832225100354
20
-138.99749474096205
10
-104.7965291275315
20
-139.28925531532263
10
-103.32330463501447
20
-142.42447613603815
10
-105.30187326596945
20
-145.26793638239309
10
-108.75366638944152
20
-144.97617580803251
10
-110.22689088195855
20
-141.84095498731699
0
LWPOLYLINE
5
172
100
AcDbEntity
8
0
100
AcDbPolyline
90
6
70
1
43
0.0
10
-99.259150590231286
20
-130.48680182998154
10
-96.068223371201611
20
-131.83512800819497
10
-95.640444484607201
20
-135.27271513060862
10
-98.403592817042409
20
-137.36197607480881
10
-101.59452003607211
20
-136.01364989659544
10
-102.02229892266655
20
-132.57606277418176
0
LWPOLYLINE
5
173
100
AcDbEntity
8
0
100
AcDbPolyline
90
6
70
1
43
0.0
10
-88.073034462301479
20
-125.18511276475792
10
-85.457912850012789
20
-127.45692678728282
10
-86.117800700048761
20
-130.85759554877299
10
-89.39281016237338
20
-131.98645028773822
10
-92.00793177466204
20
-129.7146362652133
10
-91.348043924626097
20
-126.31396750372315
0
LWPOLYLINE
5
174
100
AcDbEntity
8
0
100
AcDbPolyline
90
6
70
1
43
0.0
10
-75.794026652310052
20
-123.61569625725795
10
-74.012819204405858
20
-126.58677350760516
10
-75.695243855860468
20
-129.61488303207386
10
-79.158875955219244
20
-129.6719153061953
10
-80.940083403123452
20
-126.7008380558481
10
-79.257658751668856
20
-123.67272853137941
0
LWPOLYLINE
5
175
100
AcDbEntity
8
0
100
AcDbPolyline
90
6
70
1
43
0.0
10
-63.63404670550365
20
-125.93345134895991
10
-62.862555909746618
20
-129.3105509850474
10
-65.401464587831015
20
-131.66723143100259
10
-68.711864061672514
20
-130.6468122408703
10
-69.483354857429561
20
-127.26971260478282
10
-66.944446179345107
20
-124.91303215882763
0
LWPOLYLINE
5
176
100
AcDbEntity
8
0
100
AcDbPolyline
90
6
70
1
43
0.0
10
-52.793266296612416
20
-131.90961910915905
10
-53.107637130579199
20
-135.35942649200683
10
-56.252443379271924
20
-136.81207705500657
10
-59.082878793997793
20
-134.81492023515855
10
-58.768507960031009
20
-131.36511285231077
10
-55.62370171133832
20
-129.91246228931101
0
LWPOLYLINE
5
177
100
AcDbEntity
8
0
100
AcDbPolyline
90
6
70
1
43
0.0
10
-44.341654096278589
20
-140.95436079629485
10
-45.710858632954654
20
-144.13638514201344
10
-49.151174820145513
20
-144.54163140313432
10
-51.222286470660343
20
-141.76485331853667
10
-49.853081933984242
20
-138.58282897281811
10
-46.412765746793418
20
-138.17758271169717
0
LWPOLYLINE
5
178
100
AcDbEntity
8
0
100
AcDbPolyline
90
6
70
1
43
0.0
10
-39.113371477548462
20
-152.17497405184059
10
-41.402271294911799
20
-154.77515435829517
10
-44.798543403403137
20
-154.09299912296825
10
-45.905915694531103
20
-150.81066358118676
10
-43.617015877167766
20
-148.21048327473218
10
-40.220743768676464
20
-148.8926385100591
0
LWPOLYLINE
5
179
100
AcDbEntity
8
0
100
AcDbPolyline
90
6
70
1
43
0.0
10
-37.624442046869859
20
-164.46400127625111
10
-40.607126186258427
20
-166.2257036701418
10
-43.624147282969865
20
-164.52347463091175
10
-43.658484240292807
20
-161.05954319779102
10
-40.675800100904276
20
-159.29784080390033
10
-37.658779004192802
20
-161.0000698431304
0
LWPOLYLINE
5
180
100
AcDbEntity
8
0
100
AcDbPolyline
90
6
70
1
43
0.0
10
-40.021820892671407
20
-176.60853402319319
10
-43.403902929566343
20
-177.3578811361607
10
-45.743897584096196
20
-174.80358573101046
10
-44.701810201731149
20
-171.49994321289267
10
-41.319728164836249
20
-170.75059609992513
10
-38.97973351030636
20
-173.30489150507537
0
LWPOLYLINE
5
181
100
AcDbEntity
8
0
100
AcDbPolyline
90
6
70
1
43
0.0
10
-46.068890339848778
20
-187.40992523325764
10
-49.51656387982748
20
-187.07295763580802
10
-50.94857815017324
20
-183.91870096750625
10
-48.932918880540335
20
-181.1014118966541
10
-45.485245340561633
20
-181.43837949410371
10
-44.053231070215872
20
-184.59263616240548
0
LWPOLYLINE
5
182
100
AcDbEntity
8
0
100
AcDbPolyline
90
6
70
1
43
0.0
10
-55.168813757307404
20
-195.8020938902992
10
-58.341798623552144
20
-194.4120697759106
10
-58.724494861740972
20
-190.96917221872474
10
-55.934206233685074
20
-188.91629877592754
10
-52.761221367440328
20
-190.30632289031618
10
-52.378525129251507
20
-193.74922044750204
0
LWPOLYLINE
5
183
100
AcDbEntity
8
0
100
AcDbPolyline
90
6
70
1
43
0.0
10
-66.423442432991692
20
-200.95674560931084
10
-69.008569806353705
20
-198.65085826091442
10
-68.304176471058298
20
-195.2591286093662
10
-65.014655762400878
20
-194.17328630621432
10
-62.429528389038879
20
-196.47917365461072
10
-63.133921724334279
20
-199.87090330615899
0
LWPOLYLINE
5
184
100
AcDbEntity
8
0
100
AcDbPolyline
90
6
70
1
43
0.0
10
-78.721961496708573
20
-202.36512404255831
10
-80.464083205673518
20
-199.37096106249976
10
-78.742122856354356
20
-196.36515791602247
10
-75.278040798070251
20
-196.35351774960372
10
-73.535919089105306
20
-199.34768072966227
10
-75.257879438424467
20
-202.35348387613956
0
ENDSEC
0
SECTION
2
OBJECTS
0
DICTIONARY
5
C
100
AcDbDictionary
3
ACAD_GROUP
350
D
3
ACAD_MLINESTYLE
350
17
0
DICTIONARY
5
D
100
AcDbDictionary
0
DICTIONARY
5
1A
330
C
100
AcDbDictionary
0
DICTIONARY
5
17
100
AcDbDictionary
0
ENDSEC
0
EOF
