0
SECTION
2
HEADER
9
$INSUNITS
70
1
9
$ACADVER
1
AC1014
9
$HANDSEED
5
FFFF
0
ENDSEC
0
SECTION
2
TABLES
0
TABLE
2
VPORT
5
8
100
AcDbSymbolTable
0
ENDTAB
0
TABLE
2
LTYPE
5
5
100
AcDbSymbolTable
0
LTYPE
5
14
100
AcDbSymbolTableRecord
100
AcDbLinetypeTableRecord
2
BYBLOCK
70
0
0
LTYPE
5
15
100
AcDbSymbolTableRecord
100
AcDbLinetypeTableRecord
2
BYLAYER
70
0
0
ENDTAB
0
TABLE
2
LAYER
5
2
100
AcDbSymbolTable
70
2
0
LAYER
5
50
100
AcDbSymbolTableRecord
100
AcDbLayerTableRecord
2
0
70
0
6
CONTINUOUS
0
ENDTAB
0
TABLE
2
STYLE
5
3
100
AcDbSymbolTable
70
1
0
STYLE
5
11
100
AcDbSymbolTableRecord
100
AcDbTextStyleTableRecord
2
STANDARD
70
0
0
ENDTAB
0
TABLE
2
VIEW
5
6
100
AcDbSymbolTable
70
0
0
ENDTAB
0
TABLE
2
UCS
5
7
100
AcDbSymbolTable
70
0
0
ENDTAB
0
TABLE
2
APPID
5
9
100
AcDbSymbolTable
70
2
0
APPID
5
12
100
AcDbSymbolTableRecord
100
AcDbRegAppTableRecord
2
ACAD
70
0
0
ENDTAB
0
TABLE
2
DIMSTYLE
5
A
100
AcDbSymbolTable
70
1
0
ENDTAB
0
TABLE
2
BLOCK_RECORD
5
1
100
AcDbSymbolTable
70
1
0
BLOCK_RECORD
5
1F
100
AcDbSymbolTableRecord
100
AcDbBlockTableRecord
2
*MODEL_SPACE
0
BLOCK_RECORD
5
1B
100
AcDbSymbolTableRecord
100
AcDbBlockTableRecord
2
*PAPER_SPACE
0
ENDTAB
0
ENDSEC
0
SECTION
2
BLOCKS
0
BLOCK
5
20
100
AcDbEntity
100
AcDbBlockBegin
2
*MODEL_SPACE
0
ENDBLK
5
21
100
AcDbEntity
100
AcDbBlockEnd
0
BLOCK
5
1C
100
AcDbEntity
100
AcDbBlockBegin
2
*PAPER_SPACE
0
ENDBLK
5
1D
100
AcDbEntity
100
AcDbBlockEnd
0
ENDSEC
0
SECTION
2
ENTITIES
0
LWPOLYLINE
5
100
100
AcDbEntity
8
OUTER_PROFILES
100
AcDbPolyline
90
60
70
1
43
0.0
10
4.6053544043344763
20
8.9156748405490163
10
1.2595276262276747
20
8.9156748405490163
10
1.2595276262276747
20
8.5854752764160622
10
1.2395276262276751
20
8.5854752764160622
10
1.2395276262276751
20
9.0438638169269687
10
-0.059685039370078109
20
9.0438638169269687
10
-0.059685039370076708
20
8.6807142106277553
10
-0.099685039370078596
20
8.6354752764160612
10
-0.27496062992125964
20
8.4601996858648807
10
-0.32019956413295259
20
8.4201996858648815
10
-0.68334917043216503
20
8.4201996858648815
10
-0.68334917043216503
20
6.9628768256995048
10
-0.039522535205035549
20
6.9628768256995048
10
-0.039522535205035549
20
6.5419846137621152
10
-0.68334917043216503
20
6.5419846137621152
10
-0.68334917043216503
20
4.2452794850526212
10
-0.039522535205035549
20
4.2452794850526212
10
-0.039522535205035549
20
3.8314061946616444
10
-0.68334917043216503
20
3.8314061946616453
10
-0.68334917043216503
20
2.5927980204227778
10
-0.019837495834956535
20
2.5927980204227778
10
-0.019837495834956535
20
2.1738841072325612
10
-0.68334917043216503
20
2.1738841072325612
10
-0.68334917043216503
20
0.68334917043216648
10
-0.32019956413295259
20
0.68334917043216648
10
-0.27496062992125964
20
0.64334917043216588
10
-0.039999999999999085
20
0.40838854051090612
10
-2.7919486495248768e-15
20
0.36314960629921245
10
0
20
0
10
10.077480475118779
20
0
10
10.077480475118783
20
0.36314960629921245
10
10.11748047511878
20
0.40838854051090612
10
10.391811183780199
20
0.68271924917232396
10
10.437050117991893
20
0.72271924917232233
10
10.800199724291106
20
0.72271924917232233
10
10.800199724291106
20
2.1407575879614602
10
10.156850550045647
20
2.1407575879614602
10
10.156850550045647
20
2.6124830600861864
10
10.800199724291106
20
2.6124830600861864
10
10.800199724291106
20
3.8132704795541161
10
10.156850550045647
20
3.8132704795541161
10
10.156850550045647
20
4.2463413521491074
10
10.800199724291106
20
4.2463413521491074
10
10.800199724291106
20
6.4904358737776962
10
10.156850550045647
20
6.4904358737776962
10
10.156850550045647
20
6.9235067463726878
10
10.800199724291106
20
6.9235067463726878
10
10.800199724291106
20
8.420199685864878
10
10.437050117991893
20
8.420199685864878
10
10.391811183780199
20
8.4601996858648771
10
10.216535593229015
20
8.6354752764160612
10
10.176535593229016
20
8.6807142106277535
10
10.176535593229016
20
9.0438638169269687
10
8.1686612232850759
20
9.0438638169269687
10
8.1686612232850759
20
8.4195694564619288
10
7.7345996662927536
20
8.4195694564619288
10
7.7345996662927536
20
9.0438638169269687
10
4.6253544043344759
20
9.0438638169269687
10
4.6253544043344768
20
8.5854752764160622
10
4.6053544043344763
20
8.5854752764160622
0
LWPOLYLINE
5
101
100
AcDbEntity
8
INTERIOR_PROFILES
100
AcDbPolyline
90
4
70
1
43
0.0
10
-0.039999995893380984
20
5.548047379155074
10
-0.039999995893380984
20
6.3354489539582248
10
0.35370079150819378
20
6.3354489539582248
10
0.35370079150819378
20
5.5480473791550748
0
LWPOLYLINE
5
102
100
AcDbEntity
8
INTERIOR_PROFILES
100
AcDbPolyline
90
4
70
1
43
0.0
10
10.117480458692302
20
6.3132705159270293
10
10.117480458692302
20
5.5258689411238793
10
9.3300788838891524
20
5.5258689411238793
10
9.3300788838891524
20
6.3132705159270293
0
CIRCLE
5
103
100
AcDbEntity
8
INTERIOR_PROFILES
100
AcDbCircle
10
-0.3143307180479753
20
4.3841366297929678
30
0
40
0.15748031496062995
210
0
220
0
230
-1
0
LWPOLYLINE
5
104
100
AcDbEntity
8
INTERIOR_PROFILES
100
AcDbPolyline
90
4
70
1
43
0.0
10
-0.039999995893380984
20
7.1597272326001393
10
-0.039999995893380984
20
7.9471288074032893
10
0.35370079150819378
20
7.9471288074032893
10
0.35370079150819378
20
7.1597272326001393
0
CIRCLE
5
105
100
AcDbEntity
8
INTERIOR_PROFILES
100
AcDbCircle
10
-8.545726011727405
20
4.1260590275988127
30
0
40
0.19685039370078738
210
-0
220
0
230
-1
0
LINE
5
106
100
AcDbEntity
8
BEND
100
AcDbLine
10
7.7345996662927536
20
8.6580947435219091
30
2.8028760414995581e-15
11
4.6253544043344759
21
8.6580947435219091
31
2.6416970098733248e-15
0
LINE
5
107
100
AcDbEntity
8
BEND
100
AcDbLine
10
10.196535593228997
20
8.6580947435219286
30
1.9553470969136565e-15
11
8.1686612232850759
21
8.6580947435219304
31
2.666283641816694e-15
0
LINE
5
108
100
AcDbEntity
8
BEND
100
AcDbLine
10
10.414430650886045
20
3.8132704795541161
30
2.1745510029567532e-15
11
10.414430650886045
21
2.6124830600861864
31
2.1745510029567532e-15
0
LINE
5
109
100
AcDbEntity
8
BEND
100
AcDbLine
10
10.414430650886045
20
8.4401996858648793
30
2.1745510029567532e-15
11
10.414430650886045
21
6.9235067463726878
31
2.1745510029567532e-15
0
LINE
5
110
100
AcDbEntity
8
BEND
100
AcDbLine
10
10.414430650886047
20
2.1407575879614598
30
2.1745510029567532e-15
11
10.414430650886047
21
0.70271924917232353
31
2.1745510029567532e-15
0
LINE
5
111
100
AcDbEntity
8
BEND
100
AcDbLine
10
10.414430650886045
20
6.4904358737776962
30
2.1745510029567532e-15
11
10.414430650886045
21
4.2463413521491074
31
2.1745510029567532e-15
0
LINE
5
112
100
AcDbEntity
8
BEND
100
AcDbLine
10
10.097480475118783
20
0.38576907340505961
30
1.6118096674477195e-15
11
-0.020000000000000944
21
0.38576907340505961
31
1.6118096674477195e-15
0
LINE
5
113
100
AcDbEntity
8
BEND
100
AcDbLine
10
-0.2975800970271047
20
0.66334917043216546
30
1.9468647515083776e-15
11
-0.2975800970271047
21
2.1738841072325612
31
1.9241638555138567e-15
0
LINE
5
114
100
AcDbEntity
8
BEND
100
AcDbLine
10
-0.29758009702710608
20
2.5927980204227778
30
1.7984794966195094e-15
11
-0.29758009702710608
21
3.8314061946616453
31
1.7984794966195094e-15
0
LINE
5
115
100
AcDbEntity
8
BEND
100
AcDbLine
10
-0.29758009702710331
20
4.245279485052623
30
1.7766247126701849e-15
11
-0.29758009702710331
21
6.5419846137621152
31
1.7766247126701849e-15
0
LINE
5
116
100
AcDbEntity
8
BEND
100
AcDbLine
10
-0.2975800970271047
20
6.9628768256995048
30
1.7984794966195039e-15
11
-0.2975800970271047
21
8.4401996858648811
31
1.8212190949856339e-15
0
LINE
5
117
100
AcDbEntity
8
BEND
100
AcDbLine
10
1.2395276262276751
20
8.6580947435219056
30
2.748239081626249e-15
11
-0.07968503937007905
21
8.6580947435219056
31
3.3792959681627392e-15
0
LINE
5
118
100
AcDbEntity
8
BEND
100
AcDbLine
10
4.6053544043344763
20
8.6180947435219082
30
1.2785048610348749e-15
11
1.2595276262276747
21
8.6180947435219082
31
8.1955439809927887e-16
0
LINE
5
119
100
AcDbEntity
8
BEND_EXTENT
100
AcDbLine
10
1.2595276262276747
20
8.6407142106277561
30
3.1470888887012311e-15
11
4.6053544043344763
21
8.6407142106277561
31
3.1470888887012311e-15
0
LINE
5
120
100
AcDbEntity
8
BEND_EXTENT
100
AcDbLine
10
4.6053544043344763
20
8.595475276416062
30
1.7483827159451283e-15
11
1.2595276262276747
21
8.595475276416062
31
1.7483827159451283e-15
0
LINE
5
121
100
AcDbEntity
8
BEND_EXTENT
100
AcDbLine
10
-0.099685039370078596
20
8.6354752764160612
30
1.7265279319958142e-15
11
1.2395276262276751
21
8.6354752764160612
31
1.7265279319958142e-15
0
LINE
5
122
100
AcDbEntity
8
BEND_EXTENT
100
AcDbLine
10
-0.27496062992125964
20
8.4601996858648807
30
1.7483827159451283e-15
11
-0.27496062992125964
21
6.9628768256995048
31
1.7265279319958142e-15
0
LINE
5
123
100
AcDbEntity
8
BEND_EXTENT
100
AcDbLine
10
-0.27496062992125964
20
6.5419846137621152
30
1.7483827159451283e-15
11
-0.27496062992125964
21
4.2452794850526212
31
1.7265279319958142e-15
0
LINE
5
124
100
AcDbEntity
8
BEND_EXTENT
100
AcDbLine
10
-0.27496062992125964
20
3.8314061946616453
30
1.7483827159451283e-15
11
-0.27496062992125964
21
2.5927980204227778
31
1.7265279319958142e-15
0
LINE
5
125
100
AcDbEntity
8
BEND_EXTENT
100
AcDbLine
10
-0.27496062992125964
20
2.1738841072325603
30
1.7483827159451283e-15
11
-0.27496062992125964
21
0.64334917043216588
31
1.7483827159451283e-15
0
LINE
5
126
100
AcDbEntity
8
BEND_EXTENT
100
AcDbLine
10
-0.039999999999999085
20
0.40838854051090612
30
1.7483827159451283e-15
11
10.11748047511878
21
0.40838854051090612
31
1.7483827159451283e-15
0
LINE
5
127
100
AcDbEntity
8
BEND_EXTENT
100
AcDbLine
10
10.391811183780199
20
0.68271924917232396
30
1.7483827159451283e-15
11
10.391811183780199
21
2.1407575879614602
31
1.7265279319958142e-15
0
LINE
5
128
100
AcDbEntity
8
BEND_EXTENT
100
AcDbLine
10
10.391811183780199
20
2.6124830600861864
30
1.7483827159451283e-15
11
10.391811183780199
21
3.8132704795541161
31
1.7265279319958142e-15
0
LINE
5
129
100
AcDbEntity
8
BEND_EXTENT
100
AcDbLine
10
10.391811183780199
20
4.2463413521491074
30
1.7483827159451283e-15
11
10.391811183780199
21
6.4904358737776962
31
1.7265279319958142e-15
0
LINE
5
130
100
AcDbEntity
8
BEND_EXTENT
100
AcDbLine
10
10.391811183780199
20
6.9235067463726878
30
1.7483827159451283e-15
11
10.391811183780199
21
8.4601996858648771
31
1.7483827159451283e-15
0
LINE
5
131
100
AcDbEntity
8
BEND_EXTENT
100
AcDbLine
10
8.1686612232850759
20
8.6354752764160612
30
1.7265279319958142e-15
11
10.216535593229015
21
8.6354752764160612
31
1.7265279319958142e-15
0
LINE
5
132
100
AcDbEntity
8
BEND_EXTENT
100
AcDbLine
10
4.6253544043344768
20
8.6354752764160612
30
1.7483827159451283e-15
11
7.7345996662927536
21
8.6354752764160612
31
1.7265279319958142e-15
0
LINE
5
133
100
AcDbEntity
8
BEND_EXTENT
100
AcDbLine
10
10.437050117991893
20
8.420199685864878
30
1.7483827159451283e-15
11
10.437050117991893
21
6.9235067463726878
31
1.7483827159451283e-15
0
LINE
5
134
100
AcDbEntity
8
BEND_EXTENT
100
AcDbLine
10
10.437050117991893
20
3.8132704795541161
30
1.7483827159451283e-15
11
10.437050117991893
21
2.6124830600861864
31
1.7483827159451283e-15
0
LINE
5
135
100
AcDbEntity
8
BEND_EXTENT
100
AcDbLine
10
10.437050117991893
20
2.1407575879614598
30
1.7483827159451283e-15
11
10.437050117991893
21
0.72271924917232233
31
1.7483827159451283e-15
0
LINE
5
136
100
AcDbEntity
8
BEND_EXTENT
100
AcDbLine
10
10.437050117991893
20
6.4904358737776962
30
1.7483827159451283e-15
11
10.437050117991893
21
4.2463413521491074
31
1.7483827159451283e-15
0
LINE
5
137
100
AcDbEntity
8
BEND_EXTENT
100
AcDbLine
10
-0.32019956413295259
20
0.68334917043216648
30
1.7483827159451283e-15
11
-0.32019956413295259
21
2.1738841072325612
31
2.1199140430834682e-15
0
LINE
5
138
100
AcDbEntity
8
BEND_EXTENT
100
AcDbLine
10
-0.32019956413295259
20
4.245279485052623
30
1.8576566356916986e-15
11
-0.32019956413295259
21
6.5419846137621152
31
1.8576566356916986e-15
0
LINE
5
139
100
AcDbEntity
8
BEND_EXTENT
100
AcDbLine
10
-0.32019956413295259
20
6.9628768256995048
30
1.8576566356916986e-15
11
-0.32019956413295259
21
8.4201996858648815
31
1.7483827159451283e-15
0
LINE
5
140
100
AcDbEntity
8
BEND_EXTENT
100
AcDbLine
10
-0.32019956413295259
20
2.5927980204227778
30
1.8576566356916986e-15
11
-0.32019956413295259
21
3.8314061946616453
31
1.8576566356916986e-15
0
LINE
5
141
100
AcDbEntity
8
BEND_EXTENT
100
AcDbLine
10
10.077480475118783
20
0.36314960629921245
30
1.7483827159451283e-15
11
-2.7974123455122052e-15
21
0.36314960629921245
31
1.7483827159451283e-15
0
LINE
5
142
100
AcDbEntity
8
BEND_EXTENT
100
AcDbLine
10
1.2395276262276751
20
8.6807142106277553
30
3.1470888887012311e-15
11
-0.059685039370076708
21
8.6807142106277553
31
3.1470888887012311e-15
0
LINE
5
143
100
AcDbEntity
8
BEND_EXTENT
100
AcDbLine
10
7.7345996662927536
20
8.6807142106277571
30
1.7483827159451283e-15
11
4.6253544043344759
21
8.6807142106277571
31
1.7483827159451283e-15
0
LINE
5
144
100
AcDbEntity
8
BEND_EXTENT
100
AcDbLine
10
10.176535593229016
20
8.6807142106277535
30
4.5457950614573337e-15
11
8.1686612232850759
21
8.6807142106277535
31
4.5457950614573337e-15
0
ENDSEC
0
SECTION
2
OBJECTS
0
DICTIONARY
5
C
100
AcDbDictionary
3
ACAD_GROUP
350
D
3
ACAD_MLINESTYLE
350
17
0
DICTIONARY
5
D
100
AcDbDictionary
0
DICTIONARY
5
1A
330
C
100
AcDbDictionary
0
DICTIONARY
5
17
100
AcDbDictionary
0
ENDSEC
0
EOF
