0
SECTION
2
HEADER
9
$INSUNITS
70
4
9
$ACADVER
1
AC1014
9
$HANDSEED
5
FFFF
0
ENDSEC
0
SECTION
2
TABLES
0
TABLE
2
VPORT
5
8
100
AcDbSymbolTable
0
ENDTAB
0
TABLE
2
LTYPE
5
5
100
AcDbSymbolTable
0
LTYPE
5
14
100
AcDbSymbolTableRecord
100
AcDbLinetypeTableRecord
2
BYBLOCK
70
0
0
LTYPE
5
15
100
AcDbSymbolTableRecord
100
AcDbLinetypeTableRecord
2
BYLAYER
70
0
0
ENDTAB
0
TABLE
2
LAYER
5
2
100
AcDbSymbolTable
70
2
0
LAYER
5
50
100
AcDbSymbolTableRecord
100
AcDbLayerTableRecord
2
0
70
0
6
CONTINUOUS
0
ENDTAB
0
TABLE
2
STYLE
5
3
100
AcDbSymbolTable
70
1
0
STYLE
5
11
100
AcDbSymbolTableRecord
100
AcDbTextStyleTableRecord
2
STANDARD
70
0
0
ENDTAB
0
TABLE
2
VIEW
5
6
100
AcDbSymbolTable
70
0
0
ENDTAB
0
TABLE
2
UCS
5
7
100
AcDbSymbolTable
70
0
0
ENDTAB
0
TABLE
2
APPID
5
9
100
AcDbSymbolTable
70
2
0
APPID
5
12
100
AcDbSymbolTableRecord
100
AcDbRegAppTableRecord
2
ACAD
70
0
0
ENDTAB
0
TABLE
2
DIMSTYLE
5
A
100
AcDbSymbolTable
70
1
0
ENDTAB
0
TABLE
2
BLOCK_RECORD
5
1
100
AcDbSymbolTable
70
1
0
BLOCK_RECORD
5
1F
100
AcDbSymbolTableRecord
100
AcDbBlockTableRecord
2
*MODEL_SPACE
0
BLOCK_RECORD
5
1B
100
AcDbSymbolTableRecord
100
AcDbBlockTableRecord
2
*PAPER_SPACE
0
ENDTAB
0
ENDSEC
0
SECTION
2
BLOCKS
0
BLOCK
5
20
100
AcDbEntity
100
AcDbBlockBegin
2
*MODEL_SPACE
0
ENDBLK
5
21
100
AcDbEntity
100
AcDbBlockEnd
0
BLOCK
5
1C
100
AcDbEntity
100
AcDbBlockBegin
2
*PAPER_SPACE
0
ENDBLK
5
1D
100
AcDbEntity
100
AcDbBlockEnd
0
ENDSEC
0
SECTION
2
ENTITIES
0
ARC
5
100
100
AcDbEntity
8
0
100
AcDbCircle
10
-78.523862820284336
20
-164.22921643626611
30
0
40
29.5
210
0
220
-0
230
1
100
AcDbArc
50
54.307736849851992
51
75.012621059003635
0
LINE
5
101
100
AcDbEntity
8
0
100
AcDbLine
10
-70.894977984603088
20
-135.73272338599918
30
0
11
-25.441000543892383
21
-135.73272338599918
31
0
0
LINE
5
102
100
AcDbEntity
8
0
100
AcDbLine
10
-25.441000543892383
20
-135.73272338599918
30
0
11
-25.441000543892383
21
-140.93774825245205
31
0
0
SPLINE
5
103
100
AcDbEntity
8
0
100
AcDbSpline
70
0
71
3
72
14
73
10
74
0
42
0.000000001
43
0.0000000001
44
0.0000000001
40
0
40
0
40
0
40
0
40
0.11719334201607848
40
0.11719334201607848
40
0.23438668403215701
40
0.23438668403215701
40
0.3437986092666423
40
0.3437986092666423
40
0.45321053450112886
40
0.45321053450112886
40
0.45321053450112886
40
0.45321053450112886
10
-28.24749822026169
20
-143.93150122334819
30
0
10
-27.857667202672932
20
-143.90630435224358
30
0
10
-27.476484691308475
20
-143.80520571067214
30
0
10
-26.774327922151002
20
-143.46258596536057
30
0
10
-26.460066665776143
20
-143.22434049312787
30
0
10
-25.95780331909409
20
-142.66017163643221
30
0
10
-25.766988128115788
20
-142.3458208255818
30
0
10
-25.507505929356441
20
-141.66412289230132
30
0
10
-25.441000543892457
20
-141.30245466990036
30
0
10
-25.441000543892457
20
-140.93774825245205
30
0
0
SPLINE
5
104
100
AcDbEntity
8
0
100
AcDbSpline
70
4
71
5
72
18
73
12
74
0
42
0.000000001
43
0.0000000001
44
0.0000000001
40
-0.81224405847446446
40
-0.81224405847446446
40
-0.81224405847446446
40
-0.81224405847446446
40
-0.81224405847446446
40
-0.81224405847446446
40
-0.79999999999999993
40
-0.69999999999999996
40
-0.59999999999999998
40
-0.5
40
-0.40000000000000002
40
-0.30000000000000004
40
-0.2284256125032153
40
-0.2284256125032153
40
-0.2284256125032153
40
-0.2284256125032153
40
-0.2284256125032153
40
-0.2284256125032153
41
1
41
1
41
1
41
1
41
1
41
1
41
1
41
1
41
1
41
1
41
1
41
1
10
-28.247498220261697
20
-143.93150122334822
30
0
10
-28.369573255581692
20
-143.93939158812492
30
0
10
-29.486860339629828
20
-144.0111685812835
30
0
10
-31.568200824059556
20
-144.1372245975185
30
0
10
-34.540030718178521
20
-144.29487656728821
30
0
10
-38.274981915180547
20
-144.44485120488724
30
0
10
-42.475551229323244
20
-144.52516579820727
30
0
10
-46.093522069317089
20
-144.49490827363147
30
0
10
-48.677583130672524
20
-144.38883187922914
30
0
10
-50.426718076377298
20
-144.268292180716
30
0
10
-51.477721099871658
20
-144.17546894802297
30
0
10
-51.906874456235919
20
-144.13388341321493
30
0
0
LINE
5
105
100
AcDbEntity
8
0
100
AcDbLine
10
-51.906874456235919
20
-144.1338834132149
30
0
11
-51.930979035723119
21
-144.13005165377302
31
0
0
ARC
5
106
100
AcDbEntity
8
0
100
AcDbCircle
10
-48.47713812133577
20
-122.40285710550921
30
0
40
22.000000000000007
210
0
220
0
230
1
100
AcDbArc
50
234.30773684985198
51
260.96761135711131
0
LWPOLYLINE
5
107
100
AcDbEntity
8
0
100
AcDbPolyline
90
4
70
1
43
0.0
10
-136.06198044874174
20
-197.19015023375567
10
-240.63788538157451
20
-197.19015023375567
10
-240.63788538157451
20
-135.73272338599918
10
-136.06198044874174
20
-135.73272338599918
0
CIRCLE
5
108
100
AcDbEntity
8
0
100
AcDbCircle
10
-162.46281286792805
20
-104.14460117313297
30
0
40
2
210
0
220
-0
230
1
0
CIRCLE
5
109
100
AcDbEntity
8
0
100
AcDbCircle
10
-22.341302823161037
20
-195.90352227751524
30
0
40
2
210
0
220
-0
230
1
0
CIRCLE
5
110
100
AcDbEntity
8
0
100
AcDbCircle
10
-244.50838110581418
20
-132.92825533476079
30
0
40
2
210
0
220
-0
230
1
0
CIRCLE
5
111
100
AcDbEntity
8
0
100
AcDbCircle
10
-244.32877659363123
20
-200.45335853706479
30
0
40
2
210
0
220
-0
230
1
0
CIRCLE
5
112
100
AcDbEntity
8
0
100
AcDbCircle
10
-22.372280019093914
20
-131.85109824325116
30
0
40
2
210
0
220
-0
230
1
0
ARC
5
113
100
AcDbEntity
8
0
100
AcDbCircle
10
-78.523862820284336
20
-164.22921643626611
30
0
40
29.5
210
0
220
0
230
1
100
AcDbArc
50
104.98737894099638
51
306.59052771024676
0
SPLINE
5
114
100
AcDbEntity
8
0
100
AcDbSpline
70
0
71
3
72
12
73
8
74
0
42
0.000000001
43
0.0000000001
44
0.0000000001
40
0
40
0
40
0
40
0
40
0.20000000000000001
40
0.40000000000000002
40
0.59999999999999998
40
0.80000000000000004
40
1
40
1
40
1
40
1
10
-55.424349593633977
20
-185.52000634398198
30
0
10
-55.822108135142585
20
-185.59274206746159
30
0
10
-56.610960932332581
20
-185.77465440829596
30
0
10
-57.764338300859457
20
-186.15456046445604
30
0
10
-58.878152690550976
20
-186.63832188675076
30
0
10
-59.943075173000118
20
-187.22188685495186
30
0
10
-60.614482110360385
20
-187.67420705110365
30
0
10
-60.939144604416541
20
-187.9152394301866
30
0
0
SPLINE
5
115
100
AcDbEntity
8
0
100
AcDbSpline
70
4
71
5
72
19
73
13
74
0
42
0.000000001
43
0.0000000001
44
0.0000000001
40
0.12085564885539152
40
0.12085564885539152
40
0.12085564885539152
40
0.12085564885539152
40
0.12085564885539152
40
0.12085564885539152
40
0.20000000000000001
40
0.30000000000000004
40
0.40000000000000002
40
0.5
40
0.59999999999999998
40
0.69999999999999996
40
0.79999999999999993
40
0.81793170587400499
40
0.81793170587400499
40
0.81793170587400499
40
0.81793170587400499
40
0.81793170587400499
40
0.81793170587400499
41
1
41
1
41
1
41
1
41
1
41
1
41
1
41
1
41
1
41
1
41
1
41
1
41
1
10
-55.424349593633565
20
-185.52000634398189
30
0
10
-54.986568978504366
20
-185.48111489731738
30
0
10
-53.972931839598161
20
-185.40382496109231
30
0
10
-52.312372577766965
20
-185.3217424643471
30
0
10
-49.879486626773044
20
-185.29416947453544
30
0
10
-46.48337344714578
20
-185.41138018986351
30
0
10
-42.575693318840152
20
-185.70570255739952
30
0
10
-38.323350648150125
20
-186.16301102624024
30
0
10
-34.508036608667645
20
-186.66865161523998
30
0
10
-31.465016339111543
20
-187.11979826435305
30
0
10
-29.317895260032628
20
-187.4579996969884
30
0
10
-28.13866989450802
20
-187.64920976318592
30
0
10
-27.958968109827058
20
-187.67847208635112
30
0
0
SPLINE
5
116
100
AcDbEntity
8
0
100
AcDbSpline
70
0
71
3
72
14
73
10
74
0
42
0.000000001
43
0.0000000001
44
0.0000000001
40
0
40
0
40
0
40
0
40
0.11719334201607952
40
0.11719334201607952
40
0.23438668403215701
40
0.23438668403215701
40
0.32916283501790167
40
0.32916283501790167
40
0.42393898600364888
40
0.42393898600364888
40
0.42393898600364888
40
0.42393898600364888
10
-25.441132067282805
20
-190.63947156594085
30
0
10
-25.441132067282805
20
-190.24882709255394
30
0
10
-25.517433619576675
20
-189.86191739325025
30
0
10
-25.814050257586359
20
-189.13912351640374
30
0
10
-26.031529526574243
20
-188.81014964227663
30
0
10
-26.527857455888029
20
-188.30726530881253
30
0
10
-26.783907394983721
20
-188.11887398800039
30
0
10
-27.345309694668241
20
-187.82895931866747
30
0
10
-27.647154627886714
20
-187.72924724638639
30
0
10
-27.958968109827062
20
-187.67847208635115
30
0
0
LINE
5
117
100
AcDbEntity
8
0
100
AcDbLine
10
-25.441132067282805
20
-190.63947156594085
30
0
11
-25.441132067282798
21
-197.19015023375567
31
0
0
LINE
5
118
100
AcDbEntity
8
0
100
AcDbLine
10
-25.441132067282798
20
-197.19015023375567
30
0
11
-129.06198044874174
21
-197.19015023375567
31
0
0
LINE
5
119
100
AcDbEntity
8
0
100
AcDbLine
10
-129.06198044874174
20
-197.19015023375567
30
0
11
-129.06198044874174
21
-135.73272338599918
31
0
0
LINE
5
120
100
AcDbEntity
8
0
100
AcDbLine
10
-129.06198044874174
20
-135.73272338599918
30
0
11
-86.152747655965598
21
-135.73272338599918
31
0
0
SPLINE
5
121
100
AcDbEntity
8
0
100
AcDbSpline
70
0
71
3
72
10
73
6
74
0
42
0.000000001
43
0.0000000001
44
0.0000000001
40
0
40
0
40
0
40
0
40
0.26218257058334282
40
0.26218257058334282
40
0.52436514116668453
40
0.52436514116668453
40
0.52436514116668453
40
0.52436514116668453
10
-61.760081351159997
20
-184.75299851597666
30
0
10
-61.083228779619006
20
-184.20014677782916
30
0
10
-60.329444283255704
20
-183.74881956188756
30
0
10
-58.71554707793419
20
-183.07767605819203
30
0
10
-57.864005843221321
20
-182.86142424111063
30
0
10
-56.994722193767458
20
-182.77131106356984
30
0
0
ARC
5
122
100
AcDbEntity
8
0
100
AcDbCircle
10
-78.523862820284336
20
-164.22921643626611
30
0
40
26.499999999999989
210
0
220
-0
230
1
100
AcDbArc
50
51.489518434230426
51
309.24187648025378
0
ARC
5
123
100
AcDbEntity
8
0
100
AcDbCircle
10
-50.504262051545808
20
-129.01697463372648
30
0
40
18.500000000000142
210
0
220
0
230
1
100
AcDbArc
50
231.48951843423055
51
263.02540528874948
0
SPLINE
5
124
100
AcDbEntity
8
0
100
AcDbSpline
70
0
71
3
72
10
73
6
74
0
42
0.000000001
43
0.0000000001
44
0.0000000001
40
-4.3228294318015381
40
-4.3228294318015381
40
-4.3228294318015381
40
-4.3228294318015381
40
-2.4834637480204411
40
-2.4834637480204411
40
-1.2045261726920278
40
-1.2045261726920278
40
-1.2045261726920278
40
-1.2045261726920278
10
-52.750702817345854
20
-147.38007632940301
30
0
10
-47.329450483665752
20
-147.53509264192272
30
0
10
-41.055286045352474
20
-147.47356981251619
30
0
10
-32.399576467340829
20
-147.31344957947908
30
0
10
-28.926345566442421
20
-147.2248787092858
30
0
10
-25.262373566018947
20
-147.11555204957403
30
0
0
SPLINE
5
125
100
AcDbEntity
8
0
100
AcDbSpline
70
0
71
3
72
14
73
10
74
0
42
0.000000001
43
0.0000000001
44
0.0000000001
40
0
40
0
40
0
40
0
40
0.23438668403215693
40
0.23438668403215693
40
0.4687733680643138
40
0.4687733680643138
40
0.70316005209647003
40
0.70316005209647003
40
0.92743235349815634
40
0.92743235349815634
40
0.92743235349815634
40
0.92743235349815634
10
-19.441323662999519
20
-141.11822123805541
30
0
10
-19.441323662999519
20
-141.89951018482927
30
0
10
-19.59392676758727
20
-142.67332958343658
30
0
10
-20.187160043606639
20
-144.11891733712963
30
0
10
-20.622118581582395
20
-144.77686508538386
30
0
10
-21.719754433769914
20
-145.88900051301692
30
0
10
-22.371937750977004
20
-146.33255557154695
30
0
10
-23.778596535124976
20
-146.93149964950919
30
0
10
-24.515131797481992
20
-147.09325563285967
30
0
10
-25.262373566018951
20
-147.11555204957403
30
0
0
LINE
5
126
100
AcDbEntity
8
0
100
AcDbLine
10
-19.441323662999519
20
-141.11822123805541
30
0
11
-19.441323662999515
21
-128.73240780485605
31
0
0
LINE
5
127
100
AcDbEntity
8
0
100
AcDbLine
10
-19.441323662999515
20
-128.73240780485605
30
0
11
-158.29532175536622
21
-128.73240780485605
31
0
0
LINE
5
128
100
AcDbEntity
8
0
100
AcDbLine
10
-158.29532175536622
20
-128.73240780485605
30
0
11
-158.29532175536622
21
-101.00610968922041
31
0
0
LINE
5
129
100
AcDbEntity
8
0
100
AcDbLine
10
-158.29532175536622
20
-101.00610968922041
30
0
11
-166.29532186712487
21
-101.00610968922041
31
0
0
LINE
5
130
100
AcDbEntity
8
0
100
AcDbLine
10
-166.29532186712487
20
-101.00610968922041
30
0
11
-166.29532186712487
21
-128.73240780485605
31
0
0
LINE
5
131
100
AcDbEntity
8
0
100
AcDbLine
10
-166.29532186712487
20
-128.73240780485605
30
0
11
-248.63779916736723
21
-128.73240780485605
31
0
0
LINE
5
132
100
AcDbEntity
8
0
100
AcDbLine
10
-248.63779916736723
20
-128.73240780485605
30
0
11
-248.63779916736723
21
-204.19042015675714
31
0
0
LINE
5
133
100
AcDbEntity
8
0
100
AcDbLine
10
-248.63779916736723
20
-204.19042015675714
30
0
11
-19.476941804243815
21
-204.19042015675714
31
0
0
LINE
5
134
100
AcDbEntity
8
0
100
AcDbLine
10
-19.476941804243815
20
-204.19042015675714
30
0
11
-19.476941804243829
21
-188.97424908035444
31
0
0
SPLINE
5
135
100
AcDbEntity
8
0
100
AcDbSpline
70
0
71
3
72
14
73
10
74
0
42
0.000000001
43
0.0000000001
44
0.0000000001
40
0
40
0
40
0
40
0
40
0.20508834852813859
40
0.20508834852813859
40
0.41017669705627779
40
0.41017669705627779
40
0.57055205734600056
40
0.57055205734600056
40
0.69304556705279152
40
0.69304556705279152
40
0.69304556705279152
40
0.69304556705279152
10
-24.037344822313138
20
-184.45071724222583
30
0
10
-23.358887612268454
20
-184.53463876472381
30
0
10
-22.703308562420567
20
-184.75027573149262
30
0
10
-21.511707940948025
20
-185.42070543705933
30
0
10
-20.987078720737166
20
-185.8690885024595
30
0
10
-20.231646153842988
20
-186.82478876801071
30
0
10
-19.966134691083141
20
-187.29235978356411
30
0
10
-19.630447310890577
20
-188.17347685273919
30
0
10
-19.530241997204847
20
-188.57029190699882
30
0
10
-19.476941804244031
20
-188.97424908035291
30
0
0
SPLINE
5
136
100
AcDbEntity
8
0
100
AcDbSpline
70
0
71
3
72
10
73
6
74
0
42
0.000000001
43
0.0000000001
44
0.0000000001
40
2.9435149554429616
40
2.9435149554429616
40
2.9435149554429616
40
2.9435149554429616
40
3.4720416805939225
40
3.4720416805939225
40
4.0888410316004347
40
4.0888410316004347
40
4.0888410316004347
40
4.0888410316004347
10
-56.994722193767515
20
-182.77131106356984
30
0
10
-54.222825409225507
20
-182.48396592918596
30
0
10
-50.296629991761094
20
-182.28743358532952
30
0
10
-37.312159894056414
20
-182.8960160112108
30
0
10
-29.464746672206282
20
-183.77937670710048
30
0
10
-24.03734482232592
20
-184.45071724222427
30
0
0
ENDSEC
0
SECTION
2
OBJECTS
0
DICTIONARY
5
C
100
AcDbDictionary
3
ACAD_GROUP
350
D
3
ACAD_MLINESTYLE
350
17
0
DICTIONARY
5
D
100
AcDbDictionary
0
DICTIONARY
5
1A
330
C
100
AcDbDictionary
0
DICTIONARY
5
17
100
AcDbDictionary
0
ENDSEC
0
EOF
