0
SECTION
2
HEADER
9
$INSUNITS
70
4
9
$ACADVER
1
AC1014
9
$HANDSEED
5
FFFF
0
ENDSEC
0
SECTION
2
TABLES
0
TABLE
2
VPORT
5
8
100
AcDbSymbolTable
0
ENDTAB
0
TABLE
2
LTYPE
5
5
100
AcDbSymbolTable
0
LTYPE
5
14
100
AcDbSymbolTableRecord
100
AcDbLinetypeTableRecord
2
BYBLOCK
70
0
0
LTYPE
5
15
100
AcDbSymbolTableRecord
100
AcDbLinetypeTableRecord
2
BYLAYER
70
0
0
ENDTAB
0
TABLE
2
LAYER
5
2
100
AcDbSymbolTable
70
2
0
LAYER
5
50
100
AcDbSymbolTableRecord
100
AcDbLayerTableRecord
2
0
70
0
6
CONTINUOUS
0
ENDTAB
0
TABLE
2
STYLE
5
3
100
AcDbSymbolTable
70
1
0
STYLE
5
11
100
AcDbSymbolTableRecord
100
AcDbTextStyleTableRecord
2
STANDARD
70
0
0
ENDTAB
0
TABLE
2
VIEW
5
6
100
AcDbSymbolTable
70
0
0
ENDTAB
0
TABLE
2
UCS
5
7
100
AcDbSymbolTable
70
0
0
ENDTAB
0
TABLE
2
APPID
5
9
100
AcDbSymbolTable
70
2
0
APPID
5
12
100
AcDbSymbolTableRecord
100
AcDbRegAppTableRecord
2
ACAD
70
0
0
ENDTAB
0
TABLE
2
DIMSTYLE
5
A
100
AcDbSymbolTable
70
1
0
ENDTAB
0
TABLE
2
BLOCK_RECORD
5
1
100
AcDbSymbolTable
70
1
0
BLOCK_RECORD
5
1F
100
AcDbSymbolTableRecord
100
AcDbBlockTableRecord
2
*MODEL_SPACE
0
BLOCK_RECORD
5
1B
100
AcDbSymbolTableRecord
100
AcDbBlockTableRecord
2
*PAPER_SPACE
0
ENDTAB
0
ENDSEC
0
SECTION
2
BLOCKS
0
BLOCK
5
20
100
AcDbEntity
100
AcDbBlockBegin
2
*MODEL_SPACE
0
ENDBLK
5
21
100
AcDbEntity
100
AcDbBlockEnd
0
BLOCK
5
1C
100
AcDbEntity
100
AcDbBlockBegin
2
*PAPER_SPACE
0
ENDBLK
5
1D
100
AcDbEntity
100
AcDbBlockEnd
0
ENDSEC
0
SECTION
2
ENTITIES
0
LWPOLYLINE
5
100
100
AcDbEntity
8
0
100
AcDbPolyline
90
8
70
1
43
0.0
10
-210.25000000000003
20
-5.9249999999999936
10
-68.750000000000028
20
-5.9249999999999936
42
-0.41421356237309553
10
-63.750000000000028
20
-10.924999999999994
10
-63.750000000000014
20
-73.00500000000001
42
-0.41421356237309509
10
-68.750000000000014
20
-78.00500000000001
10
-210.25000000000003
20
-78.00500000000001
42
-0.41421356237309509
10
-215.25000000000003
20
-73.00500000000001
10
-215.25000000000003
20
-10.924999999999994
42
-0.41421356237309509
0
LWPOLYLINE
5
101
100
AcDbEntity
8
0
100
AcDbPolyline
90
4
70
1
43
0.0
10
-43.972709277513282
20
-55.771086034000128
42
0.99999999999999989
10
-44.972709277513275
20
-55.771086034000128
10
-44.97270927751326
20
-67.77108603400012
42
0.99999999999999989
10
-43.97270927751326
20
-67.77108603400012
0
LWPOLYLINE
5
102
100
AcDbEntity
8
0
100
AcDbPolyline
90
4
70
1
43
0.0
10
-47.972709277513246
20
-51.77108603400012
10
-47.97270927751326
20
-71.771086034000135
42
-0.99999999999999989
10
-48.972709277513253
20
-71.771086034000135
10
-48.97270927751326
20
-51.77108603400012
42
-0.99999999999999989
0
LWPOLYLINE
5
103
100
AcDbEntity
8
0
100
AcDbPolyline
90
4
70
1
43
0.0
10
-49.97270927751326
20
-53.77108603400012
10
-49.972709277513239
20
-69.771086034000135
42
-0.99999999999999989
10
-50.972709277513239
20
-69.771086034000135
10
-50.972709277513253
20
-53.77108603400012
42
-0.99999999999999989
0
LWPOLYLINE
5
104
100
AcDbEntity
8
0
100
AcDbPolyline
90
4
70
1
43
0.0
10
-51.972709277513253
20
-55.771086034000128
42
0.99999999999999989
10
-52.972709277513246
20
-55.771086034000128
10
-52.972709277513232
20
-67.77108603400012
42
0.99999999999999989
10
-51.972709277513246
20
-67.77108603400012
0
LWPOLYLINE
5
105
100
AcDbEntity
8
0
100
AcDbPolyline
90
4
70
1
43
0.0
10
-53.972709277513246
20
-57.77108603400012
10
-53.972709277513225
20
-65.77108603400012
42
-0.99999999999999989
10
-54.972709277513225
20
-65.77108603400012
10
-54.972709277513239
20
-57.77108603400012
42
-0.99999999999999989
0
LWPOLYLINE
5
106
100
AcDbEntity
8
0
100
AcDbPolyline
90
4
70
1
43
0.0
10
-41.972709277513289
20
-57.77108603400012
10
-41.972709277513268
20
-65.77108603400012
42
-0.99999999999999989
10
-42.972709277513268
20
-65.77108603400012
10
-42.972709277513282
20
-57.77108603400012
42
-0.99999999999999989
0
LWPOLYLINE
5
107
100
AcDbEntity
8
0
100
AcDbPolyline
90
4
70
1
43
0.0
10
-55.972709277513218
20
-59.77108603400012
10
-55.972709277513218
20
-63.771086034000135
42
-0.99999999999999989
10
-56.972709277513218
20
-63.771086034000135
10
-56.972709277513253
20
-59.77108603400012
42
-0.99999999999999989
0
LWPOLYLINE
5
108
100
AcDbEntity
8
0
100
AcDbPolyline
90
4
70
1
43
0.0
10
-40.972709277513282
20
-63.771086034000135
10
-40.972709277513218
20
-59.77108603400012
42
-0.99999999999999989
10
-39.972709277513225
20
-59.77108603400012
10
-39.972709277513268
20
-63.771086034000135
42
-0.99999999999999989
0
LWPOLYLINE
5
109
100
AcDbEntity
8
0
100
AcDbPolyline
90
4
70
1
43
0.0
10
-235.99179316690368
20
-57.783976891337467
10
-235.99179316690368
20
-65.78397689133746
42
-0.99999999999999989
10
-236.99179316690368
20
-65.78397689133746
10
-236.99179316690362
20
-57.783976891337467
42
-0.99999999999999989
0
LWPOLYLINE
5
110
100
AcDbEntity
8
0
100
AcDbPolyline
90
4
70
1
43
0.0
10
-231.99179316690362
20
-53.783976891337481
10
-231.99179316690362
20
-69.783976891337488
42
-0.99999999999999989
10
-232.99179316690362
20
-69.783976891337488
10
-232.99179316690356
20
-53.783976891337481
42
-0.99999999999999989
0
LWPOLYLINE
5
111
100
AcDbEntity
8
0
100
AcDbPolyline
90
4
70
1
43
0.0
10
-223.99179316690351
20
-57.783976891337467
10
-223.99179316690351
20
-65.78397689133746
42
-0.99999999999999989
10
-224.99179316690351
20
-65.78397689133746
10
-224.99179316690345
20
-57.783976891337467
42
-0.99999999999999989
0
LWPOLYLINE
5
112
100
AcDbEntity
8
0
100
AcDbPolyline
90
4
70
1
43
0.0
10
-227.99179316690356
20
-53.783976891337474
10
-227.99179316690356
20
-69.783976891337488
42
-0.99999999999999989
10
-228.99179316690356
20
-69.783976891337488
10
-228.99179316690351
20
-53.783976891337474
42
-0.99999999999999989
0
LWPOLYLINE
5
113
100
AcDbEntity
8
0
100
AcDbPolyline
90
4
70
1
43
0.0
10
-229.99179316690359
20
-51.783976891337467
10
-229.99179316690359
20
-71.783976891337474
42
-0.99999999999999989
10
-230.99179316690362
20
-71.783976891337474
10
-230.99179316690362
20
-51.783976891337467
42
-0.99999999999999989
0
LWPOLYLINE
5
114
100
AcDbEntity
8
0
100
AcDbPolyline
90
4
70
1
43
0.0
10
-225.99179316690353
20
-55.783976891337474
10
-225.99179316690353
20
-67.783976891337474
42
-0.99999999999999989
10
-226.99179316690356
20
-67.783976891337474
10
-226.99179316690348
20
-55.783976891337474
42
-0.99999999999999989
0
LWPOLYLINE
5
115
100
AcDbEntity
8
0
100
AcDbPolyline
90
4
70
1
43
0.0
10
-221.99179316690373
20
-59.783976891337467
10
-221.99179316690351
20
-63.783976891337481
42
-0.99999999999999989
10
-222.99179316690353
20
-63.783976891337481
10
-222.99179316690373
20
-59.783976891337467
42
-0.99999999999999989
0
LWPOLYLINE
5
116
100
AcDbEntity
8
0
100
AcDbPolyline
90
4
70
1
43
0.0
10
-233.99179316690365
20
-55.783976891337474
10
-233.99179316690365
20
-67.783976891337474
42
-0.99999999999999989
10
-234.99179316690368
20
-67.783976891337474
10
-234.99179316690359
20
-55.783976891337474
42
-0.99999999999999989
0
LWPOLYLINE
5
117
100
AcDbEntity
8
0
100
AcDbPolyline
90
4
70
1
43
0.0
10
-237.9917931669037
20
-59.783976891337467
10
-237.9917931669037
20
-63.783976891337474
42
-0.99999999999999989
10
-238.99179316690373
20
-63.783976891337474
10
-238.99179316690365
20
-59.783976891337467
42
-0.99999999999999989
0
LWPOLYLINE
5
118
100
AcDbEntity
8
0
100
AcDbPolyline
90
8
70
1
43
0.0
10
-42.300000000000004
20
-86.000000000000014
10
-42.299999999999976
20
-203.00000000000006
42
-0.41421356237309714
10
-43.5
20
-204.20000000000005
10
-235.49999999999997
20
-204.19999999999999
42
-0.41421356237309509
10
-236.69999999999999
20
-202.99999999999997
10
-236.69999999999999
20
-86.000000000000014
42
-0.4142135623730907
10
-235.49999999999997
20
-84.800000000000026
10
-43.500000000000014
20
-84.80000000000004
42
-0.41421356237311019
0
LWPOLYLINE
5
119
100
AcDbEntity
8
0
100
AcDbPolyline
90
4
70
1
43
0.0
10
0
20
-217
10
0
20
0
10
-279
20
0
10
-279
20
-217
0
LWPOLYLINE
5
120
100
AcDbEntity
8
0
100
AcDbPolyline
90
4
70
1
43
0.0
10
-45.972709277513275
20
-53.77108603400012
10
-45.972709277513253
20
-69.771086034000135
42
-0.99999999999999989
10
-46.972709277513253
20
-69.771086034000135
10
-46.972709277513268
20
-53.77108603400012
42
-0.99999999999999989
0
ENDSEC
0
SECTION
2
OBJECTS
0
DICTIONARY
5
C
100
AcDbDictionary
3
ACAD_GROUP
350
D
3
ACAD_MLINESTYLE
350
17
0
DICTIONARY
5
D
100
AcDbDictionary
0
DICTIONARY
5
1A
330
C
100
AcDbDictionary
0
DICTIONARY
5
17
100
AcDbDictionary
0
ENDSEC
0
EOF
